<?xml version="1.0" encoding="utf-8"?>
<!-- Generator: Adobe Illustrator 16.0.0, SVG Export Plug-In . SVG Version: 6.00 Build 0)  -->
<!DOCTYPE svg PUBLIC "-//W3C//DTD SVG 1.1//EN" "http://www.w3.org/Graphics/SVG/1.1/DTD/svg11.dtd">
<svg version="1.1" id="Layer_1" xmlns="http://www.w3.org/2000/svg" xmlns:xlink="http://www.w3.org/1999/xlink" x="0px" y="0px"
	 width="243px" height="207px" viewBox="0 0 243 207" enable-background="new 0 0 243 207" xml:space="preserve">
<path fill="#FFFFFF" d="M214.588,22.375c-1.121-0.748-2.617-1.496-4.112-1.496c-0.748,0-1.495,0-2.243,0.374L22.431,78.826
	c-2.617,0.748-4.486,2.991-4.486,5.981c0,2.617,1.122,5.234,3.738,6.355l64.301,31.029l-1.121,41.123
	c0,2.616,1.121,4.86,3.364,5.981c1.122,0.374,2.243,0.748,2.991,0.748c1.496,0,2.617-0.374,3.739-1.122l29.533-26.543
	c1.496-1.122,2.617-2.616,2.991-4.485c0.374-1.87,0-3.365-1.122-4.861c-2.242-2.99-5.981-3.738-8.972-1.869l-18.692,19.44
	l0.748-32.898c0-2.616-1.495-4.86-3.738-5.981l-53.46-25.795l160.753-48.974l-16.822,127.482l-41.871-25.049
	c-1.121-0.747-2.243-0.747-3.365-0.747c-2.242,0-4.486,1.122-5.607,3.364c-0.748,1.496-1.121,3.365-0.748,4.86
	c0.375,1.869,1.496,2.991,2.991,4.112l50.843,30.281c1.869,1.121,4.486,1.121,6.355,0.374c1.869-1.122,3.365-2.991,3.738-5.233
	l18.693-148.043c0-1.122,0-2.243-0.375-2.991L214.588,22.375L214.588,22.375z M189.914,61.629c1.121-1.122,1.869-2.991,1.869-4.86
	c0-1.869-0.748-3.364-1.869-4.86c-1.121-1.122-2.991-1.869-4.86-1.869s-3.364,0.748-4.86,1.869l-67.292,58.319
	c-1.121,1.122-1.869,2.991-1.869,4.861c0,1.869,0.748,3.363,1.869,4.859c1.122,1.121,2.991,1.869,4.86,1.869
	c1.869,0,3.364-0.748,4.859-1.869L189.914,61.629z"/>
</svg>
