<svg width="100%" height="50px" viewBox="0 0 20 10"><path fill="#666" d="M94.025 19.365c-2.691.617-4.852 1.941-6.968 4.233-2.426 2.602-2.559 3-4.806 12.039-1.015 4.014-1.985 8.025-2.25 8.91l-.441 1.676H58.262c-18.125 0-21.609.089-23.681.706-6.438 1.896-11.687 7.011-13.67 13.451-.797 2.554-.841 4.893-.841 55.739 0 50.847.043 53.184.838 55.742 2.072 6.703 7.893 12.129 14.641 13.67 2.691.617 169.212.617 171.902 0 6.746-1.543 12.568-6.967 14.641-13.67.795-2.559.838-4.896.838-55.697 0-47.099-.089-53.273-.705-55.435-1.896-6.438-7.012-11.688-13.451-13.67-2.47-.792-4.322-.838-24.035-.838h-21.301l-.44-1.677c-.265-.882-1.233-4.896-2.248-8.909-.971-4.014-2.117-7.982-2.47-8.864-.971-2.205-4.365-5.423-7.013-6.659l-2.204-1.014-26.681-.089c-14.73-.042-27.43.134-28.357.356zm54.818 9.965c1.233 1.104 1.587 2.118 3.308 8.953 1.104 4.233 1.985 7.761 1.985 7.806 0 .087-14.685.132-32.634.132-17.949 0-32.633-.043-32.633-.132 0-.043.882-3.573 1.985-7.806 1.72-6.835 2.072-7.849 3.308-8.953l1.323-1.19h52.039l1.319 1.19zm57.285 26.417c1.677.484 2.954 1.279 4.454 2.778 3.793 3.792 3.527-.352 3.527 57.374 0 56.449.133 53.715-2.867 57.199-.838 1.014-2.469 2.293-3.659 2.867l-2.072 1.014-83.083.133c-91.42.133-85.818.265-89.259-2.559-.882-.75-2.161-2.338-2.867-3.44l-1.19-2.072V63.201l.971-1.809c1.279-2.426 4.233-4.896 6.748-5.688 1.677-.484 15.171-.617 84.496-.617 73.819-.046 82.729.043 84.801.66z"/><path fill="#666" d="M166.48 66.507v4.409h38.366v-8.818H166.48v4.409zm-53.579.706c-20.33 3.616-36.25 19.404-40.22 39.822-.925 4.984-.925 13.229.043 18.258 3.66 19.053 17.641 33.869 36.78 39.027 3.838 1.015 5.071 1.146 11.996 1.146 6.924 0 8.158-.132 11.996-1.146 19.096-5.16 33.163-20.066 36.779-39.027 2.426-12.745-.617-26.989-8.114-37.616-11.07-15.701-30.561-23.816-49.26-20.464zm13.406 8.555c9.48 1.19 18.125 5.602 24.784 12.612 4.454 4.72 7.454 10.011 9.48 16.758 1.103 3.573 1.235 4.542 1.235 10.982 0 6.394-.133 7.408-1.189 10.936-4.588 14.906-16.008 25.578-30.959 28.842-3.969.881-12.261.881-16.318 0-18.346-3.969-31.443-19.361-32.281-38.014-.53-12.083 3.881-22.978 12.656-31.268 8.998-8.422 20.685-12.303 32.592-10.848z"/></svg>