<svg xmlns="http://www.w3.org/2000/svg"><path fill="#666" d="M214.588 22.375c-1.121-.748-2.617-1.496-4.112-1.496-.748 0-1.495 0-2.243.374L22.431 78.826c-2.617.748-4.486 2.991-4.486 5.981 0 2.617 1.122 5.234 3.738 6.355l64.301 31.029-1.121 41.123c0 2.616 1.121 4.86 3.364 5.981 1.122.374 2.243.748 2.991.748 1.496 0 2.617-.374 3.739-1.122l29.533-26.543c1.496-1.122 2.617-2.616 2.991-4.485.374-1.87 0-3.365-1.122-4.861-2.242-2.99-5.981-3.738-8.972-1.869l-18.692 19.44.748-32.898c0-2.616-1.495-4.86-3.738-5.981l-53.46-25.795 160.753-48.974-16.822 127.482-41.871-25.049c-1.121-.747-2.243-.747-3.365-.747-2.242 0-4.486 1.122-5.607 3.364-.748 1.496-1.121 3.365-.748 4.86.375 1.869 1.496 2.991 2.991 4.112l50.843 30.281c1.869 1.121 4.486 1.121 6.355.374 1.869-1.122 3.365-2.991 3.738-5.233l18.693-148.043c0-1.122 0-2.243-.375-2.991l-2.242-2.99zm-24.674 39.254c1.121-1.122 1.869-2.991 1.869-4.86 0-1.869-.748-3.364-1.869-4.86-1.121-1.122-2.991-1.869-4.86-1.869s-3.364.748-4.86 1.869l-67.292 58.319c-1.121 1.122-1.869 2.991-1.869 4.861 0 1.869.748 3.363 1.869 4.859 1.122 1.121 2.991 1.869 4.86 1.869 1.869 0 3.364-.748 4.859-1.869l67.293-58.319z"/></svg>