<svg xmlns="http://www.w3.org/2000/svg" viewBox="0 0 65 50"><path d="M57.4 3.3c-.3-.2-.7-.4-1.1-.4-.2 0-.4 0-.6.1L6 18.4c-.7.2-1.2.8-1.2 1.6 0 .7.3 1.4 1 1.7L23 30l-.3 11c0 .7.3 1.3.9 1.6.3.1.6.2.8.2.4 0 .7-.1 1-.3l7.9-7.1c.4-.3.7-.7.8-1.2.1-.5 0-.9-.3-1.3-.6-.8-1.6-1-2.4-.5l-5 5.2.2-8.8c0-.7-.4-1.3-1-1.6l-14.3-6.9 43-13.1-4.5 34.1-11.2-6.7c-.3-.2-.6-.2-.9-.2-.6 0-1.2.3-1.5.9-.2.4-.3.9-.2 1.3.1.5.4.8.8 1.1l13.6 8.1c.5.3 1.2.3 1.7.1.5-.3.9-.8 1-1.4l5-39.6c0-.3 0-.6-.1-.8l-.6-.8zm-6.6 10.5c.3-.3.5-.8.5-1.3s-.2-.9-.5-1.3c-.3-.3-.8-.5-1.3-.5s-.9.2-1.3.5l-18 15.6c-.3.3-.5.8-.5 1.3s.2.9.5 1.3c.3.3.8.5 1.3.5s.9-.2 1.3-.5l18-15.6z"/></svg>