<svg xmlns="http://www.w3.org/2000/svg" version="1.1" id="Слой_1" x="0" y="0" viewBox="0 0 75.9 33" xml:space="preserve"><style>.st0{fill:#008a6a}.st2{fill:#223a78}</style><path class="st0" d="M4.5 21.3v4.2h8.3V27H4.5v4.3H14v1.5H2.8v-13H14v1.5H4.5zM26.2 29.3h-7.1l-1.6 3.4h-1.8l6.1-12.9h1.7l6.1 12.9h-1.9l-1.5-3.4zm-6.4-1.5h5.7l-2.8-6.2-2.9 6.2zM42.7 32.7l-3.8-5.3h-5v5.3h-1.7V19.8h7.7c2.7 0 4.2 1.4 4.2 3.8 0 2.1-1.2 3.4-3.3 3.7l3.9 5.4h-2zm-8.8-6.8h5.7c1.9 0 2.8-.8 2.8-2.3s-.9-2.3-2.8-2.3h-5.7v4.6zM58.5 21.3h-5.2v11.4h-1.7V21.3h-5.2v-1.5h12.1v1.5zM73.1 19.8v12.9h-1.7v-5.8h-8.6v5.8h-1.7V19.8h1.7v5.6h8.6v-5.6h1.7z"/><g><path d="M71.5 16.7h-3.2v4.8h-2.5v-4.8H50.6v-2.5L65.4 1.8h2.8v12.7h3.2v2.2zm-5.8-2.2v-10l-12 10h12z" fill="#e4923e"/></g><g><path class="st2" d="M17.2 10.5v6.7h-2v-2.3c-1.3 1.7-3.3 2.6-5.6 2.6-2.8 0-4.5-1.4-4.5-3.7 0-2.3 1.8-3.7 4.8-3.7 1.8 0 3.8.5 5.2 1.3v-.7C15.1 8.1 13.8 7 11 7c-1.7 0-3.2.4-4.4 1.3l-.8-1.8C7.3 5.5 9 5 11.2 5c4.1 0 6 1.7 6 5.5zM15.1 13c-1.2-.7-3.1-1.2-4.8-1.2-2.1 0-3.2.6-3.2 1.9 0 1.3 1 1.9 2.8 1.9 2.1 0 4.1-.9 5.2-2.4V13zM32.8.4v16.8h-2v-2.3c-1.2 1.7-2.8 2.6-4.9 2.6-3.4 0-5.8-2.5-5.8-6.2S22.5 5 25.9 5c2 0 3.6.9 4.9 2.6V.4h2zm-2 8.9c-1.1-1.5-2.8-2.4-4.5-2.4-2.4 0-4 1.7-4 4.4 0 2.6 1.6 4.4 4 4.4 1.8 0 3.4-.9 4.5-2.4v-4zM35.8 15.7l.9-1.6c1.6 1 3.3 1.6 5.5 1.6 2.3 0 3.7-.6 3.7-1.8 0-1.1-.8-1.4-4-1.7-4.1-.3-5.5-1.2-5.5-3.5s2.1-3.6 5.5-3.6c2.1 0 4 .5 5.3 1.4l-.8 1.6c-1.2-.8-2.8-1.3-4.6-1.3-2.1 0-3.3.6-3.3 1.8 0 1.1.8 1.4 4 1.7 4.1.3 5.5 1.2 5.5 3.5 0 2.4-2.1 3.7-5.8 3.7-2.6 0-4.7-.7-6.4-1.8z"/></g></svg>